<svg width="41" height="41" viewBox="0 0 41 41" fill="none" xmlns="http://www.w3.org/2000/svg">
<path d="M30.9206 14.8507H25.5324V25.627H28.2265L30.9206 22.9329V14.8507Z" fill="#EE7131"/>
<path fill-rule="evenodd" clip-rule="evenodd" d="M22.7766 14.8507L22.8381 14.8507V25.627H20.144H17.45V20.2388L12.0616 20.2388V17.5138L14.7556 14.8507L22.7766 14.8507Z" fill="#EE7131"/>
<path d="M7.14098 0L2.04225 5.14106V7.99518L0 10.0044V23.1493H2.04225V25.1252H0V32.7176H2.04225V40.5059H18.1503V38.5942H30.647L32.1451 40.5334H35.8078L40.9008 35.509V0H7.14098ZM40.1869 35.1453L35.5126 39.7784H32.4196L30.9216 37.8393H17.4502V39.751H2.72867V33.6566V26.3886V24.5355V8.06412V5.38812L7.40867 0.652001H40.1869V35.1453Z" fill="#EE7131"/>
</svg>
