<svg width="152" height="41" viewBox="0 0 152 41" fill="none" xmlns="http://www.w3.org/2000/svg">
<path d="M30.9206 14.8507H25.5324V25.627H28.2265L30.9206 22.9329V14.8507Z" fill="#EE7131"/>
<path fill-rule="evenodd" clip-rule="evenodd" d="M22.7766 14.8506L22.8381 14.8506V25.6269H20.144H17.45V20.2388L12.0616 20.2388V17.5137L14.7556 14.8506L22.7766 14.8506Z" fill="#EE7131"/>
<path d="M7.14097 0L2.04225 5.14106V7.99518L0 10.0044V23.1493H2.04225V25.1252H0V32.7176H2.04225V40.5059H18.1503V38.5942H30.647L32.1451 40.5334H35.8078L40.9008 35.509V0H7.14097ZM40.1869 35.1453L35.5126 39.7784H32.4196L30.9216 37.8393H17.4502V39.751H2.72867V33.6566V26.3886V24.5355V8.06412V5.38812L7.40867 0.652001H40.1869V35.1453Z" fill="#EE7131"/>
<path d="M49.9429 14.6402H54.1346C55.2631 14.6402 56.1068 14.8754 56.6657 15.3456C57.2246 15.8049 57.5041 16.5431 57.5041 17.5601C57.5041 18.2272 57.3966 18.7521 57.1816 19.1348C56.9774 19.5176 56.6496 19.8347 56.1982 20.0862C57.2515 20.5018 57.7782 21.3712 57.7782 22.6944C57.7782 24.8159 56.6066 25.8767 54.2636 25.8767H49.9429V14.6402ZM54.1346 20.972H51.7324V24.302H54.1668C54.758 24.302 55.1986 24.1762 55.4888 23.9247C55.7898 23.6732 55.9402 23.2412 55.9402 22.6288C55.9402 22.0164 55.7683 21.5899 55.4243 21.3493C55.0804 21.0978 54.6505 20.972 54.1346 20.972ZM54.0379 16.215H51.7324V19.4301H54.1023C55.1556 19.4301 55.6823 18.8778 55.6823 17.7733C55.6823 16.7344 55.1341 16.215 54.0379 16.215Z" fill="white"/>
<path d="M65.57 20.2011V23.9411C65.5807 24.1817 65.6398 24.3621 65.7473 24.4824C65.8655 24.5918 66.0429 24.6628 66.2793 24.6956L66.231 26.0571C65.3067 26.0571 64.5919 25.8548 64.0868 25.4502C63.2269 25.8548 62.3617 26.0571 61.4911 26.0571C59.8897 26.0571 59.0889 25.1878 59.0889 23.449C59.0889 22.6179 59.3039 22.0164 59.7338 21.6446C60.1745 21.2728 60.8462 21.0486 61.7491 20.972L63.8288 20.7916V20.2011C63.8288 19.7636 63.7321 19.4574 63.5386 19.2825C63.3559 19.1075 63.0818 19.02 62.7164 19.02C62.0285 19.02 61.1687 19.0637 60.1369 19.1512L59.621 19.184L59.5565 17.921C60.728 17.6366 61.8028 17.4945 62.7809 17.4945C63.7697 17.4945 64.4791 17.7132 64.909 18.1506C65.3496 18.5771 65.57 19.2606 65.57 20.2011ZM61.9587 22.2351C61.217 22.3007 60.8462 22.7108 60.8462 23.4654C60.8462 24.2199 61.1741 24.5972 61.8297 24.5972C62.3671 24.5972 62.9367 24.5097 63.5386 24.3348L63.8288 24.2363V22.0547L61.9587 22.2351Z" fill="white"/>
<path d="M73.3704 19.3645C72.1021 19.1895 71.1832 19.102 70.6135 19.102C70.0439 19.102 69.6462 19.1731 69.4205 19.3153C69.2055 19.4465 69.098 19.6597 69.098 19.955C69.098 20.2503 69.2163 20.458 69.4527 20.5783C69.6999 20.6986 70.2696 20.8408 71.1617 21.0048C72.0645 21.1579 72.704 21.404 73.0802 21.743C73.4564 22.082 73.6444 22.6835 73.6444 23.5474C73.6444 24.4113 73.3704 25.0456 72.8222 25.4502C72.2848 25.8548 71.4948 26.0571 70.4523 26.0571C69.7967 26.0571 68.9691 25.9642 67.9695 25.7783L67.4697 25.6963L67.5342 24.2035C68.824 24.3785 69.7537 24.466 70.3233 24.466C70.893 24.466 71.296 24.3949 71.5325 24.2527C71.7797 24.1106 71.9033 23.8755 71.9033 23.5474C71.9033 23.2193 71.785 22.9951 71.5486 22.8748C71.3229 22.7436 70.7694 22.6069 69.888 22.4648C69.0174 22.3117 68.3779 22.0765 67.9695 21.7594C67.5611 21.4423 67.3569 20.8627 67.3569 20.0206C67.3569 19.1786 67.6363 18.5498 68.1952 18.1342C68.7649 17.7186 69.4903 17.5109 70.3717 17.5109C71.0596 17.5109 71.9033 17.5984 72.9028 17.7733L73.4026 17.8717L73.3704 19.3645Z" fill="white"/>
<path d="M78.2469 17.6749H79.3109L81.3262 25.0237H81.9711L84.0669 17.6749H85.0665L82.7127 25.8767H80.6007L78.2469 17.6749Z" fill="white"/>
<path d="M92.1239 20.119V24.5152C92.1669 24.9198 92.5162 25.1604 93.1718 25.237L93.1234 26.0243C92.2958 26.0243 91.6886 25.8056 91.3017 25.3682C90.2913 25.8166 89.281 26.0407 88.2707 26.0407C87.5506 26.0407 87.0025 25.833 86.6263 25.4174C86.2501 24.9909 86.062 24.3894 86.062 23.613C86.062 22.8256 86.2501 22.246 86.6263 21.8742C87.0132 21.4915 87.6151 21.2564 88.4319 21.1689L91.1727 20.89V20.119C91.1727 19.5066 91.0383 19.0692 90.7696 18.8068C90.5117 18.5334 90.1624 18.3967 89.7217 18.3967C89.0338 18.3967 88.1418 18.4623 87.0455 18.5935L86.5457 18.6427L86.4973 17.8553C87.6796 17.6257 88.7114 17.5109 89.5927 17.5109C90.4848 17.5109 91.1297 17.7241 91.5274 18.1506C91.925 18.5771 92.1239 19.2332 92.1239 20.119ZM87.0616 23.5474C87.0616 24.6519 87.5076 25.2042 88.3997 25.2042C88.7866 25.2042 89.2112 25.1604 89.6733 25.0729C90.1355 24.9745 90.5009 24.8761 90.7696 24.7777L91.1727 24.63V21.661L88.5448 21.9398C88.0182 21.9836 87.6366 22.1367 87.4001 22.3991C87.1744 22.6616 87.0616 23.0444 87.0616 23.5474Z" fill="white"/>
<path d="M95.5744 25.8767H94.6232V17.6749H95.5744V18.2818C96.4772 17.7679 97.3531 17.5109 98.2022 17.5109C99.277 17.5109 99.9918 17.8007 100.346 18.3803C100.712 18.9599 100.895 20.0206 100.895 21.5626V25.8767H99.9273V21.6118C99.9273 20.3542 99.8091 19.5066 99.5726 19.0692C99.3362 18.6208 98.831 18.3967 98.0571 18.3967C97.681 18.3967 97.2833 18.4568 96.8641 18.5771C96.4557 18.6865 96.1386 18.8013 95.9129 18.9216L95.5744 19.0856V25.8767Z" fill="white"/>
<path d="M106.955 25.8767V14.4762H107.955V25.8767H106.955Z" fill="white"/>
<path d="M114.651 18.5443H111.958V22.596C111.958 23.6568 112.034 24.3512 112.184 24.6792C112.335 25.0073 112.689 25.1714 113.248 25.1714L114.731 25.0565L114.796 25.8931C114.087 26.0025 113.544 26.0571 113.168 26.0571C112.351 26.0571 111.781 25.8548 111.459 25.4502C111.147 25.0347 110.991 24.2473 110.991 23.0881V18.5443H109.798V17.6749H110.991V15.0995H111.958V17.6749H114.651V18.5443Z" fill="white"/>
<path d="M121.497 25.0565L121.981 25.0073L122.013 25.8111C120.799 25.9642 119.772 26.0407 118.934 26.0407C117.773 26.0298 116.962 25.6799 116.5 24.9909C116.038 24.302 115.806 23.2412 115.806 21.8086C115.806 18.9434 116.913 17.5109 119.128 17.5109C120.192 17.5109 120.987 17.8225 121.514 18.4459C122.04 19.0583 122.304 20.0425 122.304 21.3985L122.271 22.1859H116.79C116.79 23.192 116.956 23.9411 117.29 24.4332C117.634 24.9144 118.214 25.1549 119.031 25.1549C119.858 25.1549 120.681 25.1221 121.497 25.0565ZM116.79 21.3657H121.336C121.336 20.2831 121.159 19.5121 120.804 19.0528C120.46 18.5935 119.901 18.3639 119.128 18.3639C118.364 18.3639 117.784 18.6044 117.386 19.0856C116.989 19.5558 116.79 20.3159 116.79 21.3657Z" fill="white"/>
<path d="M124.285 25.8767V17.6749H125.236V18.856C125.634 18.5716 126.118 18.2982 126.687 18.0358C127.268 17.7733 127.8 17.5984 128.283 17.5109V18.4951C127.821 18.5935 127.338 18.7466 126.832 18.9544C126.327 19.1512 125.935 19.3262 125.655 19.4793L125.236 19.7254V25.8767H124.285Z" fill="white"/>
<path d="M132.183 18.4131C130.914 18.4131 130.28 18.8778 130.28 19.8074C130.28 20.2339 130.42 20.5346 130.699 20.7096C130.979 20.8845 131.608 21.0595 132.586 21.2345C133.575 21.3985 134.268 21.6282 134.665 21.9234C135.074 22.2187 135.278 22.7874 135.278 23.6294C135.278 24.4605 135.015 25.0729 134.488 25.4666C133.962 25.8494 133.188 26.0407 132.167 26.0407C131.575 26.0407 130.812 25.9642 129.877 25.8111L129.41 25.7455L129.474 24.8761C130.678 25.062 131.602 25.1549 132.247 25.1549C132.892 25.1549 133.392 25.0401 133.747 24.8105C134.112 24.5808 134.295 24.1926 134.295 23.6458C134.295 23.099 134.144 22.7381 133.843 22.5632C133.553 22.3773 132.919 22.2078 131.941 22.0547C130.974 21.9016 130.291 21.6829 129.893 21.3985C129.496 21.1142 129.297 20.5783 129.297 19.791C129.297 19.0036 129.571 18.4295 130.119 18.0686C130.667 17.7077 131.344 17.5273 132.15 17.5273C132.795 17.5273 133.601 17.5984 134.569 17.7405L135.004 17.8061L134.972 18.6755C133.822 18.5006 132.892 18.4131 132.183 18.4131Z" fill="white"/>
<path d="M136.888 21.7594C136.888 20.2175 137.141 19.1239 137.646 18.4787C138.162 17.8335 139.032 17.5109 140.258 17.5109C141.494 17.5109 142.364 17.8335 142.869 18.4787C143.385 19.1239 143.643 20.2175 143.643 21.7594C143.643 23.3013 143.407 24.4004 142.934 25.0565C142.472 25.7127 141.585 26.0407 140.274 26.0407C138.963 26.0407 138.07 25.7127 137.598 25.0565C137.125 24.4004 136.888 23.3013 136.888 21.7594ZM137.888 21.743C137.888 23.0334 138.033 23.9301 138.323 24.4332C138.624 24.9253 139.269 25.1714 140.258 25.1714C141.257 25.1714 141.907 24.9198 142.208 24.4168C142.509 23.9137 142.66 23.0225 142.66 21.743C142.66 20.4526 142.488 19.5723 142.144 19.102C141.811 18.6208 141.187 18.3803 140.274 18.3803C139.36 18.3803 138.731 18.6154 138.388 19.0856C138.054 19.5558 137.888 20.4416 137.888 21.743Z" fill="white"/>
<path d="M146.68 25.8767H145.729V17.6749H146.68V18.2818C147.583 17.7679 148.459 17.5109 149.308 17.5109C150.382 17.5109 151.097 17.8007 151.452 18.3803C151.817 18.9599 152 20.0206 152 21.5626V25.8767H151.033V21.6118C151.033 20.3542 150.914 19.5066 150.678 19.0692C150.442 18.6208 149.936 18.3967 149.163 18.3967C148.786 18.3967 148.389 18.4568 147.97 18.5771C147.561 18.6865 147.244 18.8013 147.018 18.9216L146.68 19.0856V25.8767Z" fill="white"/>
</svg>
