<svg width="131" height="76" viewBox="0 0 131 76" fill="none" xmlns="http://www.w3.org/2000/svg">
<path d="M94.342 1.30841H130.5V56.3382L112.214 74.6243H94.342V1.30841Z" stroke="#4B5167"/>
<mask id="path-2-inside-1_320_145" fill="white">
<path fill-rule="evenodd" clip-rule="evenodd" d="M74.5029 0.808413L74.9278 0.808415V75.1243H56.3488H37.7699V37.9664L0.609314 37.9664L0.609315 19.1738L19.1883 0.808411L74.5029 0.808413Z"/>
</mask>
<path d="M74.9278 0.808415H75.9278V-0.19158L74.9278 -0.191585L74.9278 0.808415ZM74.5029 0.808413L74.5029 -0.191587L74.5029 -0.191587L74.5029 0.808413ZM74.9278 75.1243V76.1243H75.9278V75.1243H74.9278ZM37.7699 75.1243H36.7699V76.1243H37.7699V75.1243ZM37.7699 37.9664H38.7699V36.9664L37.7699 36.9664L37.7699 37.9664ZM0.609314 37.9664L-0.390686 37.9664L-0.390686 38.9664L0.609314 38.9664L0.609314 37.9664ZM0.609315 19.1738L-0.0936932 18.4627L-0.390685 18.7562L-0.390685 19.1738L0.609315 19.1738ZM19.1883 0.808411L19.1883 -0.191589L18.7775 -0.191589L18.4853 0.0972287L19.1883 0.808411ZM74.9278 -0.191585L74.5029 -0.191587L74.5029 1.80841L74.9278 1.80842L74.9278 -0.191585ZM75.9278 75.1243V0.808415H73.9278V75.1243H75.9278ZM56.3488 76.1243H74.9278V74.1243H56.3488V76.1243ZM37.7699 76.1243H56.3488V74.1243H37.7699V76.1243ZM36.7699 37.9664V75.1243H38.7699V37.9664H36.7699ZM0.609314 38.9664L37.7699 38.9664L37.7699 36.9664L0.609314 36.9664L0.609314 38.9664ZM-0.390685 19.1738L-0.390686 37.9664L1.60931 37.9664L1.60931 19.1738L-0.390685 19.1738ZM18.4853 0.0972287L-0.0936932 18.4627L1.31232 19.885L19.8913 1.51959L18.4853 0.0972287ZM74.5029 -0.191587L19.1883 -0.191589L19.1883 1.80841L74.5029 1.80841L74.5029 -0.191587Z" fill="#4B5167" mask="url(#path-2-inside-1_320_145)"/>
</svg>
