<svg width="138" height="79" viewBox="0 0 138 79" fill="none" xmlns="http://www.w3.org/2000/svg">
<g style="mix-blend-mode:overlay" opacity="0.5">
<path d="M99.0289 1.2309H137.163V59.2256L117.889 78.5H99.0289V1.2309Z" stroke="#606782"/>
<mask id="path-2-inside-1_289_1424" fill="white">
<path fill-rule="evenodd" clip-rule="evenodd" d="M78.161 0.730838L78.6085 0.730839V79H59.0412H39.4739V39.8654H0.336609L0.33661 20.0732L19.9039 0.730835L78.161 0.730838Z"/>
</mask>
<path d="M78.6085 0.730839H79.6085V-0.269156L78.6085 -0.269161L78.6085 0.730839ZM78.161 0.730838L78.161 -0.269162L78.161 -0.269162L78.161 0.730838ZM78.6085 79V80H79.6085V79H78.6085ZM39.4739 79H38.4739V80H39.4739V79ZM39.4739 39.8654H40.4739V38.8654H39.4739V39.8654ZM0.336609 39.8654L-0.663391 39.8654L-0.663391 40.8654H0.336609V39.8654ZM0.33661 20.0732L-0.366398 19.362L-0.66339 19.6556L-0.66339 20.0732L0.33661 20.0732ZM19.9039 0.730835L19.9039 -0.269165L19.4931 -0.269165L19.2009 0.019653L19.9039 0.730835ZM78.6085 -0.269161L78.161 -0.269162L78.161 1.73084L78.6085 1.73084L78.6085 -0.269161ZM79.6085 79V0.730839H77.6085V79H79.6085ZM59.0412 80H78.6085V78H59.0412V80ZM39.4739 80H59.0412V78H39.4739V80ZM38.4739 39.8654V79H40.4739V39.8654H38.4739ZM0.336609 40.8654H39.4739V38.8654H0.336609V40.8654ZM-0.66339 20.0732L-0.663391 39.8654L1.33661 39.8654L1.33661 20.0732L-0.66339 20.0732ZM19.2009 0.019653L-0.366398 19.362L1.03962 20.7844L20.6069 1.44202L19.2009 0.019653ZM78.161 -0.269162L19.9039 -0.269165L19.9039 1.73083L78.161 1.73084L78.161 -0.269162Z" fill="#606782" mask="url(#path-2-inside-1_289_1424)"/>
</g>
</svg>
